<svg width="249" height="82" viewBox="0 0 249 82" fill="none" xmlns="http://www.w3.org/2000/svg">
<g clip-path="url(#clip0_263_3477)">
<path d="M220.391 0.509888C222.054 0.637349 223.29 2.16688 223.333 3.78139C224.143 13.9783 209.774 31.6104 206.96 36.3265C205.724 39.6829 204.743 43.1244 203.933 46.6083C203.677 47.798 203.592 49.0301 203.72 50.2197C204.956 50.0498 205.852 49.2 206.704 48.3928C215.018 40.5752 218.088 34.3296 222.736 28.6788C224.356 26.7244 224.74 24.1327 225.72 21.8809C227.682 17.2498 229.387 12.3213 232.883 8.62491C233.992 7.26533 236.209 6.84046 237.573 8.07258C238.767 9.17725 238.767 10.8767 238.597 12.3638C238.256 15.0405 236.721 17.3348 235.399 19.6291C226.829 34.3296 226.488 31.0581 225.251 35.8591C224.185 39.9379 222.992 44.1016 222.906 48.3503C227.255 46.6933 230.837 43.5918 234.504 40.8301C235.783 40.1503 235.399 38.5783 235.911 37.4311C237.19 33.7772 240.43 31.4405 243.329 29.1886C244.395 28.2539 245.973 27.1068 247.38 28.169C248.616 29.1037 249.725 31.5679 247.977 32.5876C245.888 34.1596 243.756 35.7316 241.922 37.6011C241.368 38.2384 240.643 39.343 241.283 40.1503C242.86 41.2125 244.864 41.5099 246.186 42.912C247.593 44.1441 248.105 46.1835 247.55 47.9679C246.868 50.1348 245.376 51.9192 244.012 53.7037C241.88 56.4653 238.895 58.3348 235.996 60.1617C234.12 61.1814 232.286 62.4985 230.112 62.7534C230.112 62.0736 230.283 61.3938 230.709 60.8415C234.546 56.1254 238.98 51.9192 242.264 46.7358C239.791 45.5037 236.934 44.3565 235.655 41.7648C232.457 44.6539 229.43 47.713 225.763 50.0073C222.395 52.0892 220.391 50.8995 220.178 48.5627C219.964 46.2259 220.348 43.9316 220.476 41.6373C218.216 43.0819 209.689 57.3151 202.185 55.743C200.778 55.5306 199.541 54.5959 198.987 53.3213C198.049 51.5368 198.475 49.4975 198.347 47.5855C195.619 50.1772 193.103 53.1089 189.607 54.7234C187.646 55.6581 185.045 55.0633 183.808 53.2788C183.339 52.3866 182.7 53.4912 182.273 53.8736C179.672 56.7202 175.963 59.4394 171.87 58.7596C170.122 58.5897 169.184 57.0601 168.075 55.9555C166.284 57.4425 163.897 59.227 161.466 58.1223C156.904 55.2757 160.699 42.1047 162.447 32.4177C161.339 32.6726 161.04 33.8622 160.401 34.6695C155.753 41.8498 148.462 54.2135 144.369 56.1254C142.365 57.0601 139.594 55.9555 139.21 53.7037C138.4 46.9482 143.218 24.685 144.284 12.6612C141.853 14.7006 137.59 24.2177 123.264 52.4715C119.554 59.8218 105.1 85.3565 97.9373 81.1928C97.383 80.428 97.7241 79.4508 97.98 78.6436C100.112 73.0353 105.1 71.2508 112.349 59.057C112.647 58.5047 112.903 57.9524 113.116 57.4C111.453 57.655 109.79 57.4 108.128 57.4V57.3576C109.918 57.1876 111.794 57.655 113.542 57.0601C113.926 56.4228 124.585 35.8166 129.574 25.1949C132.857 19.0342 135.927 12.7462 139.849 6.96792C141.512 4.54616 143.346 1.7845 146.373 0.934758C148.889 0.679836 150.935 2.97414 151.148 5.35341C151.788 12.8736 149.997 18.7368 146.799 42.4021C147.908 42.4021 148.206 41.17 148.761 40.4477C153.408 33.5648 158.013 26.5969 163.769 20.5638C165.858 18.3969 170.207 18.9068 169.738 24.0902C169.184 30.6757 163.3 42.8695 162.575 52.9389C162.618 53.9586 162.319 55.1907 163.044 56.0405C164.792 56.2529 166.242 54.9358 167.691 54.171C167.564 49.6249 169.909 45.3337 173.192 42.3171C176.603 39.2156 180.269 36.114 184.704 34.712C186.708 34.2446 188.882 33.9047 190.843 34.5845C190.929 34.9669 190.971 35.3918 191.014 35.7741C189.777 36.6664 188.584 37.6436 187.39 38.5358C188.584 39.1731 190.033 39.9804 190.118 41.5099C190.289 44.0166 188.967 46.3534 188.839 48.8177C191.739 47.1607 201.375 36.7089 202.696 32.6726C204.53 27.1068 206.406 21.541 208.751 16.1451C210.712 11.2591 215.274 -0.212392 220.391 0.509888ZM180.227 43.2094C177.072 45.6311 173.703 48.5627 173.021 52.7265C173.277 53.7886 174.258 53.0239 174.812 52.7265C179.161 49.8798 182.572 45.6311 184.235 40.7026C182.7 41.1275 181.463 42.2322 180.227 43.2094Z" fill="black"/>
<path d="M11.4696 22.1783C14.5821 22.1359 17.6519 22.1359 20.7644 22.1783C24.3886 31.7379 33.2144 53.8312 33.9819 56.6353C31.85 56.7203 29.7182 56.6778 27.629 56.7203C26.4351 54.0861 25.5398 51.3245 24.4738 48.6478C20.2954 48.5628 16.117 48.6478 11.8959 48.6053C11.299 48.6478 10.6595 48.5203 10.1052 48.7752C8.82607 51.3245 8.18651 54.1711 6.86477 56.7203C4.69028 56.7203 2.51579 56.7628 0.341309 56.6353C1.66306 52.8115 8.86871 36.1141 11.5122 29.3162C12.0238 27.9566 12.9619 26.597 12.8339 25.0675C12.4928 24.0478 11.9812 23.1131 11.4696 22.1783ZM11.5975 44.0167H22.9815C21.1482 39.1307 19.3148 34.2872 17.3961 29.4436C15.1363 34.1597 13.6867 39.2581 11.5975 44.0167Z" fill="black"/>
<path d="M83.0143 21.9658C84.805 21.8808 86.6384 21.9233 88.4292 21.9658C88.4718 33.6497 88.5144 45.2912 88.4292 56.9326C86.6384 57.0176 84.8476 57.0176 83.0569 56.9326C82.9716 45.2912 82.929 33.6497 83.0143 21.9658Z" fill="black"/>
<path d="M62.8898 32.5025C65.7891 31.5678 68.9443 31.4404 71.9715 31.6953C74.9135 32.2051 77.6849 34.6694 77.6849 37.8134C77.6422 55.3606 77.429 54.4683 78.7934 57.0176C77.0027 57.06 75.2546 57.1025 73.5064 56.9751C73.1653 56.3803 73.1227 55.5305 72.5258 55.1481C70.5645 56.2528 68.4753 57.4424 66.1302 57.315C62.8046 57.4849 59.2231 55.488 58.3277 52.1315C57.9439 50.3471 57.8587 48.4352 58.4129 46.6932C60.5874 41.5948 66.6845 41.6797 72.1421 41.5523C72.1847 40.3201 72.3552 39.088 72.1421 37.8559C70.6071 33.9896 64.3395 35.8165 60.3742 36.9637C61.0991 35.4341 61.7386 33.7771 62.8898 32.5025ZM64.8085 45.886C62.3782 47.8404 63.103 52.5139 66.2581 53.2787C68.1768 53.6186 70.4366 53.4486 71.9715 52.1315C72.1847 49.6248 72.0568 47.0756 72.0141 44.5264C69.5838 44.3989 66.7698 44.144 64.8085 45.886Z" fill="black"/>
<path d="M97.4256 32.5026C99.9838 31.6528 102.67 31.6104 105.356 31.6104C108.724 31.6104 112.221 34.287 112.221 37.8135C112.263 42.9119 112.263 48.0104 112.221 53.1513C112.221 54.4684 112.562 55.7855 113.414 56.8052C111.666 57.4 109.79 56.9326 108 57.1026C107.786 56.4228 107.573 55.7855 107.36 55.1057C105.74 55.743 104.333 56.8052 102.585 57.1451C96.1892 58.3347 91.158 53.9161 92.8635 47.0756C94.6116 41.4249 102.201 41.6798 106.678 41.5948C106.72 40.3627 106.891 39.1306 106.678 37.8984C106.124 36.3264 104.333 35.6041 102.755 35.5616C100.069 35.4767 97.4683 36.2414 94.9527 37.0062C95.6349 35.3917 96.3597 33.8197 97.4256 32.5026ZM101.306 44.8238C95.976 46.7357 97.7241 53.0238 101.135 53.4062C102.968 53.6186 105.143 53.5337 106.55 52.2166C106.891 49.6673 106.72 47.1181 106.72 44.5689C104.887 44.4414 103.011 44.1865 101.306 44.8238Z" fill="black"/>
<path d="M32.4897 32.3752C34.7069 32.4177 36.8814 32.4177 39.0985 32.4177C41.1451 38.2385 43.2343 44.0167 45.3661 49.7949C46.2189 48.5628 49.6725 37.0488 51.2927 32.4602C53.3392 32.5027 55.4284 32.5027 57.5177 32.4602C54.3199 40.3203 51.4206 48.3079 48.3507 56.168C47.2848 59.8644 45.2382 63.5183 41.6993 65.3452C39.1838 66.6198 36.2844 66.5773 33.5557 66.4074C34.11 65.0053 34.2379 63.3483 35.1332 62.1162C36.3271 61.8613 37.6062 62.0312 38.7574 61.5214C40.6334 60.7141 42.0831 58.9297 42.3389 56.9328C42.1683 56.168 41.8699 55.4032 41.5714 54.6809C38.4589 47.2457 35.6022 39.768 32.4897 32.3752Z" fill="black"/>
</g>
<defs>
<clipPath id="clip0_263_3477">
<rect width="249" height="82" fill="white"/>
</clipPath>
</defs>
</svg>
